# AST/ASF file generated using VICON BodyLanguage
# -----------------------------------------------
:version 1.10
:name VICON
:units
  mass 1.0
  length 0.45
  angle deg
:documentation
   .ast/.asf automatically generated from VICON data using
   VICON BodyBuilder and BodyLanguage model FoxedUp or BRILLIANT.MOD
:root
   order TX TY TZ RX RY RZ
   axis XYZ
   position 0 0 0  
   orientation 0 0 0 
:bonedata
  begin
     id 1 
     name lhipjoint
     direction 0.521452 -0.77106 0.36545 
     length 2.0933 
     axis 0 0 0  XYZ
  end
  begin
     id 2 
     name lfemur
     direction 0.34202 -0.939693 0  
     length 6.83441  
     axis 0 0 20  XYZ
    dof rx ry rz
    limits (-160.0 20.0)
           (-70.0 70.0)
           (-60.0 70.0)
  end
  begin
     id 3 
     name ltibia
     direction 0.34202 -0.939693 0   
     length 7.28749   
     axis 0 0 20   XYZ
    dof rx
    limits (-10.0 170.0)
  end
  begin
     id 4 
     name lfoot
     direction 0.100608 -0.276418 0.955757   
     length 1.52195   
     axis -90 7.62852e-016 20   XYZ
    dof rx rz
    limits (-45.0 90.0)
           (-70.0 20.0)
  end
  begin
     id 5 
     name ltoes
     direction 1.53558e-011 -4.21907e-011 1   
     length 0.770459   
     axis -90 7.62852e-016 20   XYZ
    dof rx
    limits (-90.0 20.0)
  end
  begin
     id 6 
     name rhipjoint
     direction -0.488071 -0.788702 0.373812   
     length 2.04648  
     axis 0 0 0  XYZ 
  end
  begin
     id 7 
     name rfemur
     direction -0.34202 -0.939693 0   
     length 6.92583   
     axis 0 0 -20   XYZ
    dof rx ry rz
    limits (-160.0 20.0)
           (-70.0 70.0)
           (-70.0 60.0)
  end
  begin
     id 8 
     name rtibia
     direction -0.34202 -0.939693 0   
     length 7.41043   
     axis 0 0 -20   XYZ
    dof rx
    limits (-10.0 170.0)
 end
 begin
     id 9 
     name rfoot
     direction -0.0784433 -0.215521 0.973343   
     length 1.67708  
     axis -90 -7.62852e-016 -20   XYZ
    dof rx rz
    limits (-45.0 90.0)
           (-20.0 70.0)
  end
  begin
     id 10 
     name rtoes
     direction -1.53551e-011 -4.21842e-011 1   
     length 0.849787   
     axis -90 -7.62852e-016 -20   XYZ
    dof rx
    limits (-90.0 20.0)
  end
  begin
     id 11 
     name lowerback
     direction -0.0122332 0.997575 -0.0685192   
     length 1.98724   
     axis 0 0 0   XYZ
    dof rx ry rz
    limits (-20.0 45.0)
           (-30.0 30.0)
           (-30.0 30.0)
  end
  begin
     id 12 
     name upperback
     direction 0.0182347 0.999724 -0.0148421   
     length 1.99029   
     axis 0 0 0   XYZ
    dof rx ry rz
    limits (-20.0 45.0)
           (-30.0 30.0)
           (-30.0 30.0)
  end
  begin
     id 13 
     name thorax
     direction 0.0242908 0.99956 0.0170184   
     length 1.99573   
     axis 0 0 0   XYZ
    dof rx ry rz
    limits (-20.0 45.0)
           (-30.0 30.0)
           (-30.0 30.0)
  end
  begin
     id 14 
     name lowerneck
     direction 0.0654488 0.985533 0.156338   
     length 1.4285   
     axis 0 0 0   XYZ
    dof rx ry rz
    limits (-20.0 45.0)
           (-30.0 30.0)
           (-30.0 30.0)
  end
  begin
     id 15 
     name upperneck
     direction -0.02953 0.998556 -0.0448842   
     length 1.44709   
     axis 0 0 0   XYZ
    dof rx ry rz
    limits (-20.0 45.0)
           (-30.0 30.0)
           (-30.0 30.0)
  end
  begin
     id 16
     name head
     direction -0.0155588 0.999386 -0.0314063  
     length 1.44689  
     axis 0 0 0   XYZ
    dof rx ry rz
    limits (-20.0 45.0)
           (-30.0 30.0)
           (-30.0 30.0)
  end
  begin
     id 17 
     name lclavicle
     direction 0.968229 0.236071 -0.0824755  
     length 3.60593  
     axis 0 0 0   XYZ
    dof ry rz
    limits (-20.0 10.0)
           (0.0 20.0)
  end
  begin
     id 18 
     name lhumerus
     direction 1 -4.48968e-011 7.8138e-029   
     length 5.06035   
     axis 180 -30 -90   XYZ
    dof rx ry rz
    limits (-60.0 90.0)
           (-90.0 90.0)
           (-90.0 90.0)
  end
  begin
     id 19
     name lradius
     direction 1 -4.48967e-011 9.02887e-028   
     length 3.1478   
     axis 180 -30 -90   XYZ
    dof rx
    limits (-10.0 170.0)
  end
  begin
     id 20
     name lwrist
     direction 1 -4.48961e-011 7.20928e-028   
     length 1.5739   
     axis -5.52449e-016 90 90   XYZ
    dof ry
    limits (-180.0 0.0)
 end
  begin
     id 21 
     name lhand
     direction 1 -4.48972e-011 1.44186e-027   
     length 0.606747   
     axis -9.20027e-016 90 90   XYZ
    dof rx rz
    limits (-90.0 90.0)
           (-45.0 45.0)
  end
  begin
     id 22 
     name lfingers
     direction 1 -4.48943e-011 2.88371e-027   
     length 0.489175   
     axis -1.84005e-015 90 90   XYZ
    dof rx
    limits (0.0 90.0)
  end
  begin
     id 23
     name lthumb
     direction 0.707107 -6.34917e-011 0.707107   
     length 0.70236   
     axis -90 45 2.85299e-015   XYZ
    dof rx rz
    limits (-45.0 45.0)
           (-45.0 45.0)
  end
  begin
     id 24 
     name rclavicle
     direction -0.978165 0.207816 0.0022268   
     length 3.35425  
     axis 0 0 0   XYZ 
    dof ry rz
    limits (-10.0 20.0)
           (-20.0 0.0)
  end
  begin
     id 25 
     name rhumerus
     direction -1 -4.48964e-011 -4.02159e-027  
     length 5.12273   
     axis 180 30 90   XYZ
    dof rx ry rz
    limits (-90.0 60.0)
           (-90.0 90.0)
           (-90.0 90.0)
  end
  begin
     id 26 
     name rradius
     direction -1 -4.48966e-011 1.62746e-027   
     length 3.422   
     axis 180 30 90   XYZ
    dof rx
    limits (-10.0 170.0)
  end
  begin
     id 27 
     name rwrist
     direction -1 -4.4896e-011 7.20928e-028   
     length 1.711   
     axis -5.52449e-016 -90 -90   XYZ
    dof ry
    limits (-180.0 0.0)
  end
  begin
     id 28
     name rhand
     direction -1 -4.48979e-011 1.44186e-027   
     length 0.704599   
     axis -9.20027e-016 -90 -90   XYZ
    dof rx rz
    limits (-90.0 90.0)
           (-45.0 45.0)
  end
  begin
     id 29
     name rfingers
     direction -1 -4.48962e-011 2.88371e-027   
     length 0.568066   
     axis -1.84005e-015 -90 -90   XYZ
    dof rx
    limits (0.0 90.0)
  end
  begin
     id 30
     name rthumb
     direction -0.707107 -6.34949e-011 0.707107   
     length 0.815633   
     axis -90 -45 -2.85299e-015   XYZ
    dof rx rz
    limits (-45.0 45.0)
           (-45.0 45.0)
  end
:hierarchy
  begin
    root lhipjoint rhipjoint lowerback
    lhipjoint lfemur
    lfemur ltibia
    ltibia lfoot
    lfoot ltoes
    rhipjoint rfemur
    rfemur rtibia
    rtibia rfoot
    rfoot rtoes
    lowerback upperback
    upperback thorax
    thorax lowerneck lclavicle rclavicle
    lowerneck upperneck
    upperneck head
    lclavicle lhumerus
    lhumerus lradius
    lradius lwrist
    lwrist lhand lthumb
    lhand lfingers
    rclavicle rhumerus
    rhumerus rradius
    rradius rwrist
    rwrist rhand rthumb
    rhand rfingers
  end

#!OML:ASF E:\id_vita\Project 1\Capture day 1\Session 1\Male1.ASF
:FULLY-SPECIFIED
:DEGREES
261
root -9.43057 16.0663 1.43876 -127.443 96.0472 -134.596
lowerback -2.20368 -2.88352 -8.63442
upperback 3.26155 -3.32514 -1.59474
thorax 5.05857 -1.90081 2.93127
lowerneck 1.06461 2.279 8.95161
upperneck 13.1747 2.80635 3.02379
head 4.26859 2.06665 -0.442185
rclavicle 2.69353e-014 -4.77083e-015
rhumerus -28.7865 -15.9952 -80.8307
rradius 18.7325
rwrist 10.4631
rhand -18.8901 32.0461
rfingers 7.12502
rthumb 7.41124 2.19593
lclavicle 2.69353e-014 -4.77083e-015
lhumerus -12.6331 16.0527 80.8519
lradius 26.2062
lwrist 0.787097
lhand -9.87659 40.1289
lfingers 7.12502
lthumb 16.1025 69.4799
rfemur -28.572 1.09256 15.8063
rtibia 62.821
rfoot -12.2961 2.82089
rtoes 8.05251
lfemur -15.8196 5.02323 -27.596
ltibia 29.4884
lfoot -25.145 1.53944
ltoes -1.64288
262
root -9.3314 16.0458 1.43027 -126.566 95.9968 -133.736
lowerback -2.96868 -2.97921 -8.37576
upperback 3.75884 -3.34005 -1.7275
thorax 6.00199 -1.93445 2.58958
lowerneck 1.01086 2.21014 8.98768
upperneck 12.3375 2.72259 2.96178
head 3.97351 1.97967 -0.482922
rclavicle -2.44505e-014 -1.51076e-014
rhumerus -28.3751 -17.2108 -80.7676
rradius 18.5919
rwrist 11.0814
rhand -18.7207 32.9582
rfingers 7.12502
rthumb 7.57473 3.1138
lclavicle -2.44505e-014 -1.51076e-014
lhumerus -11.2281 15.2746 81.0415
lradius 26.9109
lwrist 1.57883
lhand -9.61742 40.0382
lfingers 7.12502
lthumb 16.352 69.3688
rfemur -29.3393 0.878179 15.9372
rtibia 61.8117
rfoot -13.4189 1.50758
rtoes 6.76143
lfemur -15.5719 4.80743 -27.6813
ltibia 29.7779
lfoot -25.4309 2.10163
ltoes -2.1572
263
root -9.22471 16.0284 1.41885 -126.467 96.091 -133.606
lowerback -2.45847 -2.97581 -8.52837
upperback 3.44338 -3.416 -1.55451
thorax 5.40332 -1.95855 2.8866
lowerneck 0.957843 2.34069 9.02988
upperneck 12.6731 2.91005 2.65899
head 4.1194 2.077 -0.58087
rclavicle 2.28602e-015 -3.10104e-014
rhumerus -29.2227 -16.8466 -80.3533
rradius 18.9119
rwrist 10.6798
rhand -18.7674 32.8634
rfingers 7.12502
rthumb 7.52969 3.01746
lclavicle 2.28602e-015 -3.10104e-014
lhumerus -11.1699 14.6303 81.3816
lradius 27.7605
lwrist 2.33058
lhand -9.72405 40.2523
lfingers 7.12502
lthumb 16.2494 69.5913
rfemur -30.0113 0.809934 15.926
rtibia 60.676
rfoot -14.2236 0.669127
rtoes 6.59842
lfemur -15.2089 4.56985 -27.8368
ltibia 29.9795
lfoot -25.6826 2.78671
ltoes -2.18872
264
root -9.11356 16.0118 1.4058 -128.369 96.323 -135.485
lowerback -2.29119 -2.90197 -8.32817
upperback 3.31719 -3.35396 -1.5764
thorax 5.15027 -1.90957 2.77268
lowerneck 0.911648 2.27793 8.97321
upperneck 12.4335 2.83785 2.48563
head 4.04035 2.01818 -0.634585
rclavicle 2.23633e-014 2.22639e-014
rhumerus -29.6905 -16.724 -80.274
rradius 19.0343
rwrist 10.4615
rhand -18.7965 32.7896
rfingers 7.12502
rthumb 7.50153 2.94264
lclavicle 2.23633e-014 2.22639e-014
lhumerus -10.8333 13.7896 81.5636
lradius 28.6138
lwrist 3.21773
lhand -10.0934 40.7711
lfingers 7.12502
lthumb 15.8937 70.1388
rfemur -30.6997 0.909638 15.9635
rtibia 59.399
rfoot -14.4814 -0.199283
rtoes 5.17841
lfemur -14.7693 4.25142 -27.9634
ltibia 30.0431
lfoot -25.8087 3.65806
ltoes -1.41529
265
root -9.00654 15.9956 1.39518 -129.972 96.4723 -137.094
lowerback -2.54489 -2.75386 -8.28813
upperback 3.45435 -3.1294 -1.48061
thorax 5.41816 -1.8118 2.85193
lowerneck 0.518063 2.18879 8.79559
upperneck 12.371 2.67267 2.47854
head 4.08293 1.92506 -0.608689
rclavicle -2.5842e-015 -6.75868e-015
rhumerus -29.742 -17.5098 -79.8653
rradius 18.9582
rwrist 10.7558
rhand -18.8668 32.8516
rfingers 7.12502
rthumb 7.43377 3.00217
lclavicle -2.5842e-015 -6.75868e-015
lhumerus -10.051 12.9101 82.1275
lradius 29.3936
lwrist 3.91119
lhand -10.6932 41.3952
lfingers 7.12502
lthumb 15.316 70.8081
rfemur -31.3434 0.933544 16.1155
rtibia 57.9666
rfoot -14.6225 -1.51206
rtoes 0.366441
lfemur -14.299 3.8397 -28.0336
ltibia 29.9649
lfoot -25.8887 4.40437
ltoes -0.144839
266
root -8.89762 15.9921 1.38625 -131.705 96.4203 -138.815
lowerback -3.29696 -2.72483 -7.78184
upperback 3.95614 -3.00377 -1.58347
thorax 6.33185 -1.76334 2.42257
lowerneck 0.327018 2.21773 8.87139
upperneck 11.5944 2.69759 2.44961
head 3.84369 1.90073 -0.636943
rclavicle -1.42131e-014 1.51076e-014
rhumerus -29.2703 -18.9206 -79.8661
rradius 18.7335
rwrist 11.6166
rhand -18.7665 33.174
rfingers 7.12502
rthumb 7.53057 3.32803
lclavicle -1.42131e-014 1.51076e-014
lhumerus -8.76147 12.0199 82.2863
lradius 30.0777
lwrist 4.67146
lhand -11.0338 41.6476
lfingers 7.12502
lthumb 14.9879 71.0852
rfemur -31.8439 0.919133 16.4463
rtibia 56.395
rfoot -14.8272 -2.72497
rtoes -2.58814
lfemur -13.7049 3.49853 -27.9196
ltibia 29.7498
lfoot -25.9787 4.95239
ltoes 1.01415
267
root -8.78565 15.9994 1.37863 -133.186 96.4113 -140.394
lowerback -2.40435 -2.64896 -7.74268
upperback 3.26209 -3.05823 -1.31137
thorax 5.09874 -1.74931 2.74669
lowerneck 0.370141 2.19008 8.66221
upperneck 11.951 2.68649 2.20165
head 3.96181 1.89177 -0.681302
rclavicle -3.90612e-014 -3.57812e-015
rhumerus -30.7237 -18.017 -79.3648
rradius 19.1385
rwrist 10.8464
rhand -18.6305 33.294
rfingers 7.12502
rthumb 7.66177 3.45276
lclavicle -3.90612e-014 -3.57812e-015
lhumerus -9.36613 11.3293 82.5449
lradius 30.9053
lwrist 5.38746
lhand -10.3601 41.1412
lfingers 7.12502
lthumb 15.6368 70.5293
rfemur -32.427 0.922417 16.713
rtibia 54.7133
rfoot -14.7638 -3.57017
rtoes -2.44054
lfemur -13.1372 3.34746 -27.8348
ltibia 29.3632
lfoot -26.0048 5.2759
ltoes 1.48827
